<svg id="Layer_1" data-name="Layer 1" xmlns="http://www.w3.org/2000/svg" viewBox="0 0 379.71 500"><defs><style>.cls-1{fill:#fff;}</style></defs><title>Fixit-Icon White</title><path class="cls-1" d="M350.51,29.71v82.54l-41.17,0a.63.63,0,0,1-.23,0H299.5l-6.12-8a19.61,19.61,0,0,0-15.65-7.64h-.32a19.72,19.72,0,0,0-7,1.34c-.18.08-.37.13-.55.23a15.82,15.82,0,0,0-3.51,2,.78.78,0,0,0-.23.13,33.48,33.48,0,0,0-9.29,9.16l-88-.06a49.86,49.86,0,0,0-6-6.22,59.67,59.67,0,0,0-25.49-12.93c-40.41-9-71.22,16-90.48,39.67-14.92,18.35-22.74,16.41-14-5.62C51.06,78.18,96.28,29.42,158.91,29.5h96a35,35,0,0,0,11.22,12.19.66.66,0,0,0,.16.11,17.72,17.72,0,0,0,3.64,2l.65.29a19.06,19.06,0,0,0,6.88,1.29h.32a19.62,19.62,0,0,0,15.65-7.65c3-4,6.12-8,6.12-8h9.61a.21.21,0,0,0,.13,0h.1Z"/><path class="cls-1" d="M252.15,368.45V461a9.85,9.85,0,0,1-9.86,9.86H183.45a9.85,9.85,0,0,1-9.86-9.86v-82a10.46,10.46,0,0,1,10.46-10.47Z"/><path class="cls-1" d="M173.59,215v59.67h66.77a11.76,11.76,0,0,0,11.77-11.77V203.23H185.37A11.76,11.76,0,0,0,173.59,215Z"/><path class="cls-1" d="M325.26,153.24c-1.57-11.65-12.25-18.87-22.07-23.48-13.16-6.2-27.53-10.52-42.29-10.52H238.18l-62.94,0h-9.81c-42.37,0-78.18,33.21-79.33,75.56a77.73,77.73,0,0,0,77.7,79.92V215.55a22,22,0,0,1,22-22h74.56v0a102.79,102.79,0,0,0,22.4-3.16,94.76,94.76,0,0,0,28.06-12c7.25-4.71,13.95-11.49,14.58-20.57A22.41,22.41,0,0,0,325.26,153.24Zm-68.65,17.82a14.68,14.68,0,1,1,14.68-14.68A14.7,14.7,0,0,1,256.61,171.06Z"/><path class="cls-1" d="M338.1,280c.51,42.28-34.48,77.07-76.47,78.66-1,.05-2,.06-3,.06H184.74a20.94,20.94,0,0,0-20.94,20.94v60.16a77.75,77.75,0,0,1-8.34-155.06,82,82,0,0,1,8.34-.45h77a20.89,20.89,0,0,0,20.78-18.39,19.73,19.73,0,0,0,.16-2.55V203.25a69.55,69.55,0,0,1,8.95.71A77.7,77.7,0,0,1,338.1,280Z"/><path class="cls-1" d="M325.27,407c-.64,9.08-7.35,15.84-14.58,20.58a94.66,94.66,0,0,1-28.07,12,100.57,100.57,0,0,1-21,3.1V368.47c14.3.15,28.55,4.41,41.45,10.5,9.79,4.61,20.49,11.83,22,23.47A20.53,20.53,0,0,1,325.27,407Z"/><rect class="cls-1" x="252.13" y="368.45" width="0.02" height="90.51"/></svg>
