<svg id="Layer_1" data-name="Layer 1" xmlns="http://www.w3.org/2000/svg" viewBox="0 0 832.05 343.43"><defs><style>.cls-1{fill:#45a1e5;}.cls-2{fill:#b2b2b2;}.cls-3{fill:#b68160;}</style></defs><title>Fixit-Logo</title><path class="cls-1" d="M347.89,126.06h25v34.57h-25V287.81H304.06V160.63H280.9V126.06h23.16v-13q0-28.4,14.66-42.6T359,56.29l13,.62V94.57a49.91,49.91,0,0,0-6.79-.31q-17.3,0-17.29,17.91Zm89.21-28.4q-7.41,7.4-19.14,7.4t-19.14-7.4q-7.41-7.41-7.41-18.84t7.41-19q7.41-7.56,19.14-7.56t19.14,7.56q7.41,7.57,7.41,19T437.1,97.66ZM396,287.81V126.06h43.84V287.81Z"/><path class="cls-1" d="M627.43,126.06l-58.49,79.61,60.35,82.14H576.5l-34-46.22-33.95,46.22H455.81l60.35-82.13-58.5-79.62h52.78l32.1,43.7,32.11-43.7Z"/><path class="cls-1" d="M685.36,97.66q-7.41,7.4-19.14,7.4t-19.14-7.4q-7.41-7.41-7.41-18.84t7.41-19q7.41-7.56,19.14-7.56t19.14,7.56q7.41,7.57,7.41,19T685.36,97.66ZM644.3,287.81V126.06h43.84V287.81Z"/><path class="cls-1" d="M802.55,248.91v38q-7.41,1.86-20.69,1.85-49.7,0-49.69-49.39V160.63H710.25V126.06h21.92V85.93H776v40.13h26.86v34.57H776v74.08q0,15.75,16.36,15.74Z"/><path class="cls-2" d="M236.54,29.62V82.88L210,82.9a.39.39,0,0,1-.15,0h-6.2l-4-5.17a12.68,12.68,0,0,0-10.1-4.93h-.2a13,13,0,0,0-4.53.86,3.73,3.73,0,0,0-.35.16,10.32,10.32,0,0,0-2.27,1.26.6.6,0,0,0-.15.09,21.52,21.52,0,0,0-6,5.91L119.3,81a32,32,0,0,0-3.87-4A38.54,38.54,0,0,0,99,68.66C72.91,62.89,53,79,40.6,94.26,31,106.1,25.92,104.85,31.53,90.63c11.77-29.74,41-61.2,81.37-61.15h61.91a22.72,22.72,0,0,0,7.24,7.87.34.34,0,0,0,.11.07,11.64,11.64,0,0,0,2.34,1.3l.43.19a12.32,12.32,0,0,0,4.44.82h.2a12.62,12.62,0,0,0,10.1-4.93l4-5.18h6.2a.12.12,0,0,0,.08,0H210Z"/><path class="cls-3" d="M173.06,248.21v59.68a6.35,6.35,0,0,1-6.36,6.36h-38a6.36,6.36,0,0,1-6.36-6.36V255a6.74,6.74,0,0,1,6.75-6.75Z"/><path class="cls-3" d="M122.37,149.19v38.5h43.08a7.58,7.58,0,0,0,7.6-7.6v-38.5H130A7.59,7.59,0,0,0,122.37,149.19Z"/><path class="cls-1" d="M220.24,109.33c-1-7.52-7.91-12.18-14.24-15.15-8.49-4-17.76-6.79-27.29-6.79H164.05l-40.61,0H117.1c-27.34,0-50.44,21.43-51.18,48.75a50.16,50.16,0,0,0,50.14,51.58V149.54a14.18,14.18,0,0,1,14.18-14.19h48.12a66.09,66.09,0,0,0,14.45-2.05,61,61,0,0,0,18.11-7.76c4.67-3,9-7.42,9.4-13.28A14.41,14.41,0,0,0,220.24,109.33Zm-44.3,11.5a9.48,9.48,0,1,1,9.48-9.47A9.49,9.49,0,0,1,175.94,120.83Z"/><path class="cls-1" d="M228.53,191.12c.33,27.28-22.25,49.73-49.35,50.76-.64,0-1.29,0-1.94,0H129.56a13.51,13.51,0,0,0-13.51,13.51v38.82a50.17,50.17,0,0,1-5.38-100.06,53.07,53.07,0,0,1,5.38-.29h49.72A13.49,13.49,0,0,0,179.18,182a12.66,12.66,0,0,0,.11-1.64V141.6a45.81,45.81,0,0,1,5.77.46A50.14,50.14,0,0,1,228.53,191.12Z"/><path class="cls-1" d="M220.25,273.07c-.42,5.86-4.74,10.22-9.41,13.27a61,61,0,0,1-18.12,7.76,65.11,65.11,0,0,1-13.54,2V248.22c9.23.09,18.42,2.84,26.75,6.77,6.31,3,13.22,7.63,14.22,15.15A13.84,13.84,0,0,1,220.25,273.07Z"/><rect x="173.05" y="248.21" width="0.01" height="58.41"/></svg>
